<svg width="25.000000" height="25.000000" viewBox="0 0 25 25" fill="none" xmlns="http://www.w3.org/2000/svg" xmlns:xlink="http://www.w3.org/1999/xlink">
	<desc>
			Created with Pixso.
	</desc>
	<defs/>
	<path id="Facebook Icon" d="M22.32 0L2.67 0C1.96 0 1.28 0.28 0.78 0.78C0.28 1.28 0 1.96 0 2.67L0 22.32C0 23.03 0.28 23.71 0.78 24.21C1.28 24.71 1.96 25 2.67 25L10.33 25L10.33 16.5L6.82 16.5L6.82 12.5L10.33 12.5L10.33 9.45C10.33 5.98 12.4 4.06 15.56 4.06C17.07 4.06 18.66 4.33 18.66 4.33L18.66 7.74L16.91 7.74C15.19 7.74 14.66 8.8 14.66 9.9L14.66 12.5L18.5 12.5L17.88 16.5L14.66 16.5L14.66 25L22.32 25C23.03 25 23.71 24.71 24.21 24.21C24.71 23.71 25 23.03 25 22.32L25 2.67C25 1.96 24.71 1.28 24.21 0.78C23.71 0.28 23.03 0 22.32 0Z" fill="#918E9B" fill-opacity="1.000000" fill-rule="nonzero"/>
</svg>
