<svg width="25.000000" height="25.000000" viewBox="0 0 25 25" fill="none" xmlns="http://www.w3.org/2000/svg" xmlns:xlink="http://www.w3.org/1999/xlink">
	<desc>
			Created with Pixso.
	</desc>
	<defs/>
	<path id="GitHub Icon" d="M21.82 -0.5L2.17 -0.5C0.7 -0.5 -0.5 0.69 -0.5 2.17L-0.5 21.82C-0.5 23.3 0.7 24.5 2.17 24.5L21.82 24.5C23.3 24.5 24.5 23.3 24.5 21.82L24.5 2.17C24.5 0.69 23.3 -0.5 21.82 -0.5ZM14.97 20.91C14.5 20.99 14.33 20.7 14.33 20.46C14.33 20.16 14.34 18.62 14.34 17.37C14.34 16.5 14.05 15.95 13.71 15.66C15.77 15.43 17.95 15.15 17.95 11.58C17.95 10.57 17.59 10.06 17 9.41C17.09 9.17 17.41 8.18 16.9 6.89C16.13 6.65 14.35 7.89 14.35 7.89C13.61 7.69 12.82 7.58 12.03 7.58C11.24 7.58 10.44 7.69 9.71 7.89C9.71 7.89 7.93 6.65 7.16 6.89C6.65 8.17 6.96 9.16 7.06 9.41C6.47 10.06 6.19 10.57 6.19 11.58C6.19 15.13 8.27 15.43 10.34 15.66C10.07 15.9 9.83 16.31 9.75 16.91C9.22 17.15 7.86 17.56 7.05 16.13C6.54 15.25 5.63 15.18 5.63 15.18C4.72 15.16 5.57 15.75 5.57 15.75C6.17 16.02 6.59 17.1 6.59 17.1C7.14 18.75 9.72 18.19 9.72 18.19C9.72 18.97 9.74 20.23 9.74 20.46C9.74 20.7 9.57 20.99 9.09 20.91C5.41 19.67 2.83 16.17 2.83 12.07C2.83 6.95 6.75 3.06 11.87 3.06C17 3.06 21.15 6.95 21.15 12.07C21.15 16.17 18.65 19.68 14.97 20.91ZM9.5 17.5C9.39 17.52 9.29 17.48 9.28 17.4C9.27 17.32 9.34 17.25 9.45 17.22C9.55 17.21 9.65 17.26 9.66 17.33C9.68 17.4 9.61 17.48 9.5 17.5ZM8.97 17.45C8.97 17.52 8.88 17.58 8.77 17.58C8.65 17.59 8.56 17.53 8.56 17.45C8.56 17.37 8.65 17.31 8.76 17.31C8.87 17.3 8.97 17.36 8.97 17.45ZM8.2 17.39C8.18 17.46 8.07 17.49 7.97 17.46C7.87 17.44 7.79 17.35 7.82 17.28C7.84 17.21 7.95 17.17 8.05 17.2C8.16 17.23 8.23 17.31 8.2 17.39ZM7.51 17.08C7.46 17.15 7.36 17.13 7.28 17.05C7.19 16.98 7.17 16.87 7.22 16.82C7.28 16.76 7.38 16.77 7.46 16.86C7.54 16.93 7.57 17.04 7.51 17.08ZM7.01 16.58C6.96 16.61 6.86 16.58 6.8 16.49C6.74 16.41 6.74 16.31 6.8 16.28C6.86 16.23 6.96 16.26 7.01 16.35C7.07 16.43 7.07 16.53 7.01 16.58ZM6.64 16.04C6.59 16.09 6.51 16.06 6.45 16C6.39 15.93 6.38 15.85 6.43 15.81C6.48 15.76 6.56 15.78 6.62 15.84C6.68 15.91 6.69 16 6.64 16.04ZM6.27 15.62C6.25 15.67 6.18 15.68 6.11 15.64C6.04 15.61 6.01 15.55 6.03 15.5C6.05 15.47 6.11 15.45 6.19 15.48C6.26 15.52 6.29 15.58 6.27 15.62Z" fill="#918E9B" fill-opacity="1.000000" fill-rule="nonzero"/>
</svg>
