<svg width="12.000000" height="9.000000" viewBox="0 0 12 9" fill="none" xmlns="http://www.w3.org/2000/svg" xmlns:xlink="http://www.w3.org/1999/xlink">
	<desc>
			Created with Pixso.
	</desc>
	<defs/>
	<path id="Icon" d="M5.5 3.9L-0.9 0.7C-0.88 0.29 -0.7 -0.09 -0.4 -0.37C-0.11 -0.65 0.29 -0.81 0.7 -0.8L10.3 -0.8C10.7 -0.81 11.1 -0.65 11.39 -0.37C11.69 -0.09 11.87 0.29 11.89 0.7L5.5 3.9ZM5.5 5.69L11.9 2.49L11.9 7.2C11.9 7.62 11.73 8.03 11.43 8.33C11.13 8.63 10.72 8.8 10.3 8.8L0.7 8.8C0.27 8.8 -0.14 8.63 -0.44 8.33C-0.74 8.03 -0.9 7.62 -0.9 7.2L-0.9 2.49L5.5 5.69Z" fill="#1E1F26" fill-opacity="1.000000" fill-rule="evenodd"/>
</svg>
