<svg width="25.000000" height="25.000000" viewBox="0 0 25 25" fill="none" xmlns="http://www.w3.org/2000/svg" xmlns:xlink="http://www.w3.org/1999/xlink">
	<desc>
			Created with Pixso.
	</desc>
	<defs/>
	<path id="Instagram Icon" d="M12.5 9.52C11.91 9.52 11.33 9.69 10.84 10.02C10.35 10.35 9.97 10.81 9.75 11.36C9.52 11.9 9.46 12.5 9.58 13.08C9.69 13.65 9.98 14.18 10.39 14.6C10.81 15.02 11.34 15.3 11.92 15.41C12.49 15.53 13.09 15.47 13.64 15.24C14.18 15.02 14.64 14.64 14.97 14.15C15.3 13.66 15.47 13.08 15.47 12.5C15.47 11.71 15.16 10.95 14.6 10.39C14.04 9.83 13.28 9.52 12.5 9.52ZM19.45 7.23C19.3 6.85 19.07 6.5 18.78 6.21C18.49 5.91 18.14 5.69 17.76 5.53C16.59 5.07 13.8 5.17 12.5 5.17C11.19 5.17 8.41 5.07 7.23 5.53C6.85 5.69 6.5 5.91 6.21 6.21C5.92 6.5 5.69 6.85 5.54 7.23C5.07 8.4 5.18 11.2 5.18 12.49C5.18 13.79 5.07 16.58 5.54 17.76C5.69 18.14 5.92 18.49 6.21 18.78C6.5 19.08 6.85 19.3 7.23 19.46C8.41 19.92 11.2 19.81 12.5 19.81C13.8 19.81 16.58 19.92 17.76 19.46C18.14 19.3 18.49 19.08 18.78 18.78C19.08 18.49 19.31 18.14 19.46 17.76C19.92 16.59 19.82 13.79 19.82 12.5C19.82 11.2 19.92 8.41 19.46 7.23L19.45 7.23ZM12.5 17.07C11.59 17.07 10.71 16.8 9.95 16.3C9.2 15.8 8.61 15.08 8.27 14.25C7.92 13.41 7.83 12.49 8.01 11.6C8.18 10.71 8.62 9.9 9.26 9.26C9.9 8.62 10.71 8.18 11.6 8.01C12.49 7.83 13.41 7.92 14.25 8.27C15.08 8.61 15.8 9.2 16.3 9.95C16.8 10.71 17.07 11.59 17.07 12.5C17.07 13.1 16.95 13.69 16.72 14.25C16.49 14.8 16.16 15.31 15.73 15.73C15.31 16.16 14.8 16.49 14.25 16.72C13.69 16.95 13.1 17.07 12.5 17.07ZM17.26 8.8C17.05 8.8 16.84 8.73 16.67 8.62C16.49 8.5 16.35 8.33 16.27 8.14C16.19 7.94 16.17 7.73 16.21 7.52C16.25 7.31 16.35 7.12 16.5 6.97C16.65 6.82 16.84 6.72 17.05 6.68C17.26 6.64 17.47 6.66 17.67 6.74C17.86 6.82 18.03 6.96 18.15 7.13C18.26 7.31 18.33 7.52 18.33 7.73C18.33 7.87 18.3 8.01 18.25 8.14C18.19 8.27 18.12 8.38 18.02 8.48C17.92 8.58 17.8 8.66 17.67 8.72C17.54 8.77 17.4 8.8 17.26 8.8L17.26 8.8ZM22.32 0L2.67 0C1.96 0 1.28 0.28 0.78 0.78C0.28 1.28 0 1.96 0 2.67L0 22.32C0 23.03 0.28 23.71 0.78 24.21C1.28 24.71 1.96 25 2.67 25L22.32 25C23.03 25 23.71 24.71 24.21 24.21C24.71 23.71 25 23.03 25 22.32L25 2.67C25 1.96 24.71 1.28 24.21 0.78C23.71 0.28 23.03 0 22.32 0ZM21.36 16.18C21.29 17.61 20.96 18.88 19.92 19.92C18.87 20.96 17.61 21.29 16.18 21.36C14.71 21.44 10.29 21.44 8.81 21.36C7.38 21.29 6.12 20.96 5.07 19.92C4.03 18.87 3.7 17.61 3.63 16.18C3.55 14.7 3.55 10.28 3.63 8.81C3.7 7.38 4.03 6.11 5.07 5.07C6.12 4.03 7.39 3.7 8.81 3.63C10.29 3.55 14.71 3.55 16.18 3.63C17.61 3.71 18.88 4.03 19.92 5.08C20.96 6.12 21.29 7.39 21.36 8.82C21.44 10.29 21.44 14.7 21.36 16.18Z" fill="#918E9B" fill-opacity="1.000000" fill-rule="nonzero"/>
</svg>
