<svg width="25.000000" height="25.000000" viewBox="0 0 25 25" fill="none" xmlns="http://www.w3.org/2000/svg" xmlns:xlink="http://www.w3.org/1999/xlink">
	<desc>
			Created with Pixso.
	</desc>
	<defs/>
	<path id="Twitter Icon" d="M22.32 0L2.67 0C1.19 0 0 1.19 0 2.67L0 22.32C0 23.8 1.19 25 2.67 25L22.32 25C23.8 25 25 23.8 25 22.32L25 2.67C25 1.19 23.8 0 22.32 0ZM19.59 8.86C19.6 9.01 19.6 9.17 19.6 9.33C19.6 14.17 15.92 19.74 9.19 19.74C7.11 19.74 5.18 19.14 3.57 18.1C3.86 18.14 4.15 18.15 4.45 18.15C6.16 18.15 7.73 17.57 8.99 16.59C7.38 16.55 6.03 15.5 5.57 14.05C6.13 14.13 6.64 14.13 7.22 13.98C5.55 13.64 4.29 12.17 4.29 10.39L4.29 10.34C4.78 10.61 5.35 10.78 5.94 10.8C5.44 10.47 5.03 10.02 4.75 9.49C4.46 8.95 4.31 8.36 4.31 7.76C4.31 7.08 4.49 6.45 4.81 5.91C6.61 8.13 9.32 9.58 12.36 9.74C11.84 7.26 13.69 5.24 15.93 5.24C16.98 5.24 17.93 5.68 18.6 6.4C19.43 6.24 20.22 5.93 20.92 5.51C20.65 6.36 20.07 7.08 19.31 7.53C20.05 7.45 20.77 7.24 21.42 6.96C20.93 7.69 20.3 8.34 19.59 8.86Z" fill="#918E9B" fill-opacity="1.000000" fill-rule="nonzero"/>
</svg>
