<svg width="13.000000" height="13.000000" viewBox="0 0 13 13" fill="none" xmlns="http://www.w3.org/2000/svg" xmlns:xlink="http://www.w3.org/1999/xlink">
	<desc>
			Created with Pixso.
	</desc>
	<defs/>
	<path id="Vector" d="M11.71 -0.67L0.28 -0.67C-0.25 -0.67 -0.67 -0.24 -0.67 0.29L-0.67 11.7C-0.67 12.23 -0.25 12.66 0.28 12.66L11.71 12.66C12.23 12.66 12.66 12.23 12.66 11.7L12.66 0.29C12.66 -0.24 12.23 -0.67 11.71 -0.67ZM3.36 10.76L1.38 10.76L1.38 4.39L3.36 4.39L3.36 10.76L3.36 10.76ZM2.37 3.52C1.74 3.52 1.22 3.01 1.22 2.38C1.22 1.75 1.74 1.23 2.37 1.23C3 1.23 3.52 1.75 3.52 2.38C3.52 3.01 3 3.52 2.37 3.52ZM10.77 10.76L8.79 10.76L8.79 7.66C8.79 6.92 8.77 5.97 7.76 5.97C6.73 5.97 6.58 6.78 6.58 7.61L6.58 10.76L4.6 10.76L4.6 4.39L6.49 4.39L6.49 5.26L6.52 5.26C6.79 4.76 7.43 4.24 8.39 4.24C10.39 4.24 10.77 5.55 10.77 7.27L10.77 10.76Z" fill="#FFFFFF" fill-opacity="1.000000" fill-rule="nonzero"/>
</svg>
