<svg width="24.000000" height="24.000000" viewBox="0 0 24 24" fill="none" xmlns="http://www.w3.org/2000/svg" xmlns:xlink="http://www.w3.org/1999/xlink">
	<desc>
			Created with Pixso.
	</desc>
	<defs/>
	<path id="Fill 213" d="M11.9954 0L11.9986 0C18.5467 0 24.0008 5.314 24 12.0016C24.0008 18.6264 18.6263 24 12.0002 24L11.9938 24C5.3653 24 -0.000793457 18.6264 0 12C0 10.1344 0.430115 8.37479 1.19037 6.79999C3.13019 2.78119 7.23151 0 11.9922 0L11.9954 0ZM15.4437 16.8971C15.034 17.5476 15.1326 18.0268 14.1978 18.5241C13.6772 18.8014 13.3068 18.88 13.0314 19.6248C12.7548 20.368 12.2962 20.3418 11.1512 20.9456C10.0047 21.5509 9.54926 20.9456 9.45587 20.4813C9.36292 20.017 9.64545 18.9203 9.64545 18.9203C9.64545 18.9203 9.75751 18.5927 8.94519 18.2227C6.89099 17.2872 8.66345 14.0029 8.66345 14.0029C8.19928 13.4596 7.02051 12.394 5.37482 12.045C3.80151 11.7121 3.35278 10.7887 2.79999 9.867C3.20459 8.16055 4.05463 6.59235 5.30969 5.31876C7.1048 3.49786 9.49084 2.39999 12.0316 2.39999C12.0316 2.39999 12.8884 2.39999 13.6971 2.6124C12.9575 3.42651 12.1301 4.24951 11.5153 4.47644C10.4085 4.88751 9.89545 5.561 9.89069 6.27838C9.88971 6.42664 10.0116 6.62296 10.1584 6.85947C10.3798 7.21579 10.6577 7.66339 10.6577 8.17548C10.6577 9.62357 9.59497 9.65701 9.47101 9.04681C9.22791 7.84439 8.38818 7.95648 7.33154 8.0975C7.172 8.1188 7.00745 8.14075 6.83929 8.15894C5.55566 8.2988 4.77795 9.81018 5.60217 10.4147C6.18756 10.8433 6.33661 10.5682 6.48694 10.291C6.54865 10.1771 6.61053 10.0628 6.703 9.99677C7.01892 9.76947 7.24231 9.6796 7.4823 9.99677C7.55017 10.0871 7.64056 10.1657 7.73401 10.247C7.96857 10.451 8.22247 10.6719 8.18695 11.1374C8.18274 11.2003 8.17767 11.2624 8.17267 11.3231C8.12616 11.8904 8.08893 12.3448 8.87683 12.3448C9.74799 12.3448 9.7782 12.5391 10.331 12.8176C10.8782 13.0965 11.3965 13.0441 11.8531 13.1376C12.3117 13.2299 12.9126 14.1279 12.9126 14.1279C14.2125 14.5539 14.6401 14.728 14.999 15.0907C15.3567 15.4534 15.8582 16.2462 15.4437 16.8971ZM19.6044 16.84C19.6376 16.9554 19.7357 17.0799 19.8649 17.2C20.9905 15.6255 21.6 13.7669 21.6 11.8152C21.6 9.26453 20.5667 6.8667 18.6899 5.06314C18.0908 4.48761 17.4231 4.0043 16.7122 3.60001C16.705 3.63745 16.662 3.70425 16.6158 3.77609C16.5533 3.87341 16.4847 3.98004 16.4907 4.03583C16.5209 4.30722 16.5891 4.45859 16.6428 4.57803C16.7241 4.75842 16.7725 4.86594 16.6075 5.20401C16.3461 5.7428 16.3757 6.07886 16.4592 6.74857C16.5051 7.12018 17.1623 7.134 17.7756 7.14691C18.2656 7.15723 18.7277 7.16693 18.8279 7.358C18.8557 7.71399 18.2983 7.88858 17.9429 7.99991C17.832 8.03461 17.7408 8.06317 17.6932 8.08917C17.2578 8.32782 16.782 8.51941 16.5888 9.02548C16.416 9.47568 16.416 10.1937 16.5514 10.9328C16.6723 11.5921 17.2008 12.1768 17.8079 12.3001C18.4132 12.4247 19.0826 12.4558 19.3805 12.3724C19.6266 12.3044 19.6884 12.4792 19.752 12.6595C19.7649 12.6962 19.778 12.7332 19.7926 12.7683C19.877 12.975 20.1628 14.2238 19.9048 14.6401C19.6459 15.0548 19.4739 16.383 19.6044 16.84Z" clip-rule="evenodd" fill="#FFFFFF" fill-opacity="1.000000" fill-rule="evenodd"/>
</svg>
